<svg width="17" height="16" viewBox="0 0 17 16" fill="none" xmlns="http://www.w3.org/2000/svg">
<path d="M8.16675 4.25C8.16675 6.32107 6.48781 8 4.41675 8H0.666748V4.25C0.666748 2.17893 2.34568 0.5 4.41675 0.5C6.48781 0.5 8.16675 2.17893 8.16675 4.25Z" fill="#FF2D20"/>
<path d="M8.16675 11.75C8.16675 9.67893 9.84568 8 11.9167 8H15.6667V11.75C15.6667 13.8211 13.9878 15.5 11.9167 15.5C9.84568 15.5 8.16675 13.8211 8.16675 11.75Z" fill="#FF2D20"/>
<path d="M0.666748 11.75C0.666748 13.8211 2.34568 15.5 4.41675 15.5H8.16675V11.75C8.16675 9.67893 6.48781 8 4.41675 8C2.34568 8 0.666748 9.67893 0.666748 11.75Z" fill="#FF2D20"/>
<path d="M15.6667 4.25C15.6667 2.17893 13.9878 0.5 11.9167 0.5H8.16675V4.25C8.16675 6.32107 9.84568 8 11.9167 8C13.9878 8 15.6667 6.32107 15.6667 4.25Z" fill="#FF2D20"/>
</svg>
