<svg width="242" height="49" viewBox="0 0 242 49" fill="none" xmlns="http://www.w3.org/2000/svg">
<path d="M65.1223 31.725H72.3769V36H59.5842V13.2646H65.1223V31.725ZM89.8191 31.9841H81.3338L79.9736 36H74.1764L82.4026 13.2646H88.8152L97.0414 36H91.1794L89.8191 31.9841ZM88.3941 27.709L85.5765 19.3857L82.7912 27.709H88.3941ZM111.787 36L107.059 27.4175H105.731V36H100.193V13.2646H109.488C111.28 13.2646 112.802 13.5777 114.054 14.2038C115.328 14.8299 116.278 15.6936 116.904 16.7947C117.53 17.8743 117.843 19.0834 117.843 20.422C117.843 21.9334 117.412 23.2829 116.548 24.4704C115.706 25.6579 114.454 26.4999 112.791 26.9965L118.038 36H111.787ZM105.731 23.4988H109.164C110.179 23.4988 110.934 23.2505 111.431 22.7539C111.949 22.2573 112.208 21.5556 112.208 20.6487C112.208 19.7851 111.949 19.105 111.431 18.6084C110.934 18.1118 110.179 17.8635 109.164 17.8635H105.731V23.4988Z" fill="#303042"/>
<path d="M136.121 31.9841H127.635L126.275 36H120.478L128.704 13.2646H135.117L143.343 36H137.481L136.121 31.9841ZM134.696 27.709L131.878 19.3857L129.093 27.709H134.696ZM160.259 24.3408C161.576 24.6215 162.634 25.28 163.432 26.3164C164.231 27.3312 164.631 28.4971 164.631 29.8142C164.631 31.7142 163.961 33.2255 162.623 34.3483C161.306 35.4494 159.46 36 157.085 36H146.494V13.2646H156.728C159.039 13.2646 160.841 13.7936 162.137 14.8515C163.454 15.9095 164.113 17.3453 164.113 19.159C164.113 20.4976 163.756 21.6095 163.044 22.4948C162.353 23.38 161.424 23.9954 160.259 24.3408ZM152.032 22.4624H155.66C156.566 22.4624 157.257 22.2681 157.732 21.8794C158.229 21.4692 158.477 20.8754 158.477 20.0982C158.477 19.3209 158.229 18.7271 157.732 18.3169C157.257 17.9067 156.566 17.7016 155.66 17.7016H152.032V22.4624ZM156.113 31.5306C157.041 31.5306 157.754 31.3255 158.251 30.9153C158.769 30.4835 159.028 29.8681 159.028 29.0693C159.028 28.2704 158.758 27.6443 158.218 27.1908C157.7 26.7374 156.977 26.5107 156.048 26.5107H152.032V31.5306H156.113ZM179.243 36.2267C177.105 36.2267 175.141 35.7301 173.349 34.7369C171.578 33.7437 170.164 32.3619 169.106 30.5914C168.07 28.7994 167.551 26.7914 167.551 24.5675C167.551 22.3436 168.07 20.3465 169.106 18.576C170.164 16.8055 171.578 15.4237 173.349 14.4305C175.141 13.4373 177.105 12.9407 179.243 12.9407C181.38 12.9407 183.334 13.4373 185.105 14.4305C186.897 15.4237 188.3 16.8055 189.315 18.576C190.352 20.3465 190.87 22.3436 190.87 24.5675C190.87 26.7914 190.352 28.7994 189.315 30.5914C188.279 32.3619 186.875 33.7437 185.105 34.7369C183.334 35.7301 181.38 36.2267 179.243 36.2267ZM179.243 31.1744C181.057 31.1744 182.503 30.5698 183.583 29.3607C184.684 28.1516 185.234 26.5539 185.234 24.5675C185.234 22.5596 184.684 20.9618 183.583 19.7743C182.503 18.5652 181.057 17.9607 179.243 17.9607C177.408 17.9607 175.939 18.5544 174.838 19.7419C173.759 20.9294 173.219 22.538 173.219 24.5675C173.219 26.5755 173.759 28.184 174.838 29.3931C175.939 30.5806 177.408 31.1744 179.243 31.1744ZM205.351 36.2267C203.213 36.2267 201.249 35.7301 199.456 34.7369C197.686 33.7437 196.272 32.3619 195.214 30.5914C194.177 28.7994 193.659 26.7914 193.659 24.5675C193.659 22.3436 194.177 20.3465 195.214 18.576C196.272 16.8055 197.686 15.4237 199.456 14.4305C201.249 13.4373 203.213 12.9407 205.351 12.9407C207.488 12.9407 209.442 13.4373 211.213 14.4305C213.005 15.4237 214.408 16.8055 215.423 18.576C216.459 20.3465 216.978 22.3436 216.978 24.5675C216.978 26.7914 216.459 28.7994 215.423 30.5914C214.387 32.3619 212.983 33.7437 211.213 34.7369C209.442 35.7301 207.488 36.2267 205.351 36.2267ZM205.351 31.1744C207.164 31.1744 208.611 30.5698 209.691 29.3607C210.792 28.1516 211.342 26.5539 211.342 24.5675C211.342 22.5596 210.792 20.9618 209.691 19.7743C208.611 18.5652 207.164 17.9607 205.351 17.9607C203.516 17.9607 202.047 18.5544 200.946 19.7419C199.867 20.9294 199.327 22.538 199.327 24.5675C199.327 26.5755 199.867 28.184 200.946 29.3931C202.047 30.5806 203.516 31.1744 205.351 31.1744ZM233.888 36L226.244 25.9601V36H220.706V13.2646H226.244V23.2397L233.823 13.2646H240.333L231.523 24.4056L240.657 36H233.888Z" fill="#FF2D20"/>
<path d="M22.0409 14.1692C22.0409 19.7587 17.5096 24.29 11.9201 24.29H1.79926V14.1692C1.79926 8.57958 6.33049 4.04834 11.9201 4.04834C17.5096 4.04834 22.0409 8.57958 22.0409 14.1692Z" fill="#FF2D20"/>
<path d="M22.0409 34.4107C22.0409 28.8212 26.5721 24.2899 32.1617 24.2899H42.2825V34.4107C42.2825 40.0003 37.7513 44.5316 32.1617 44.5316C26.5721 44.5316 22.0409 40.0003 22.0409 34.4107Z" fill="#FF2D20"/>
<path d="M1.79926 34.4107C1.79926 40.0003 6.33049 44.5316 11.9201 44.5316H22.0409V34.4107C22.0409 28.8212 17.5096 24.2899 11.9201 24.2899C6.33049 24.2899 1.79926 28.8212 1.79926 34.4107Z" fill="#FF2D20"/>
<path d="M42.2825 14.1692C42.2825 8.57958 37.7513 4.04834 32.1617 4.04834H22.0409V14.1692C22.0409 19.7587 26.5721 24.29 32.1617 24.29C37.7513 24.29 42.2825 19.7587 42.2825 14.1692Z" fill="#FF2D20"/>
</svg>
